<svg fill="none" height="400" viewBox="0 0 284 400" width="284" xmlns="http://www.w3.org/2000/svg"><g fill="#e5e8f0"><path d="m111.189 336.047-1.177 2.072.327.298.417.119.893-.268.178-.357 1.012-1.072.952-.595.149-.327-.09-.357-.357-.179-.148-.297-.298-.239-.417.03-.684.327-.239.268-.298.149-.178.298z"/><path d="m38.1366 194.547.2383-.833.6547-.238-.298.476-.1783.774z"/><path d="m41.0533 192.226.7734-.119-.1784.595z"/><path d="m26.8867 208.119-.06.833.715-.298z"/><path d="m28.1366 210.202-1.4283.774-.5357-.238.119.773 1.785-.118 1.369-.834-.119-.416-.8333-.119z"/><path d="m25.8156 195.083-.2083.387-.0597.268.268.298-.5063.476.119.358.3566.178.2684.238.1186.268-.2976.149-.2384.715.1484.386-.3867.119h-.4467l-.3566.238.1186.327.4764.09.595.774v.446l-.1784.357-.327.238-.238.298-.3273.238-.327.09-.595-.536-.4167.149-.2983.238-.2083.327-.506.447-.2084.298.2977.178h.4467l.2083-.268h1.3397l.238-.208.298-.149.8633.149.3867.178h.4466l.3867-.178-.1483-.387-.2384-.298-.119-.327-.0296-.417.506-.476-.3867-.952 1.22-1.101-.1183-.299-.3274-.238-.0596-.387.2083-.714-.1787-.387-.2083-.268-.0893-.357.1186-.327.3274-.208h.8926l.774-.208.3267-.209.06-.447-.2383-.208-.3574.327-.3573.089-.4167-.208-.7143-.803.0893-.387-.1186-.327-.3567.029-.2683.238-.7437 1.369z"/><path d="m30.756 191.601-.327.327.03.387 1.011.685.2083.357.2083-.208.2977-.685.298-.208.923.03.1787.386v.447l.238.268.1486.327.7437.774.1487.416.2976.06.2684-.327.0596-.447.7437-.416.4467-.06-.03-.387-.4167-.387-.1783-.268.268-.476-.4764-.03-.5653-1.042-.238-.059-.2683.178-.7147-.208-.0893-.357-.4467-.06-.4167.179-.1783.357-.4467.089-.7733-.089-.3573-.179-.0894-.208z"/><path d="m34.8332 195.411-.4766.625.595.565h.4466l.327-.208.03-.417.5654-.685-.268-.178h-.4467l-.4167.089z"/><path d="m35.9343 196.72-.3867.179-.1186.327.1186.357.357.178h.4464l.4166-.089.119-.387-.2083-.298-.3867-.208z"/><path d="m33.5832 199.667-.9823.833-.3867.119h-.4466l.2083.387v.446l-.0893.417-.595.506-.06.447.3276.178.8037-.357.327-.238.4767.03.2976.208.268.298-.893.952-.4466.06-.8927-.15.506.566.6847.298.5353-.06.387-.238 1.3393.03.2684.357.1483.387-.4463.714-.0597.238.387.268-.03.327-.357.357-.387-.029-.2677-.239-.3573-.178-.4463.06-.5357 1.131-.506.535.2083.357.863.09.4764-.06.5953-.208.5063-.03.5354.595.3866-.09.0597-.387.357-.326.03-.417.1487-.417-.357-.208-.0597-.327.2977-.327.2083-.387 1.4883-1.161.3867-.059.744-.923.1187-.357.327-.268 2.0536-.06.625-.298.268.209.0897.446.2083.387.3567.238.4167-.09.3273-.178h.4763l.1784-.268-1.0417-1.101-.2677-.983.1184-.357v-.446l-.1784-.387-.8026-.862-.2084-.685-.2383.268-.1187.833-.4166-.059-.2084-.417-.268-.298.1187-.268.238-.178-.565-.536-.3867-.149-.2683.269-.565 1.041-.3273-.06-.2977.09-.5067.506-.0893.357-.238.059-.03-1.339.327-.715-.506.06-.2683.179-1.7264.297-.268.209.0297.416.2383.328v.446l-.1786.298-.4167.119-.268.327v.923l-.238.268-.4463-.209-.3274-.297.0597-.596-.4763-.06-.0597-.416.238-.387.03-.268z"/><path d="m30.1607 203.922-.1783.447-.327.149-.119.386.03.864.5063.238.1487.238.2976.268.119-.298-.2383-.298.3867-.357-.238-.268-.0894-.952-.2983-.238"/><path d="m30.9343 206.631v.476l1.4584.03.1786-.268-.238-.297-.3573-.269-.1783-.267-.0894.327z"/><path d="m35.9749 182.799-.6316 1.052.1266.547.421.168.3787-.589.421-.337.5477.084.421-.21.379-.379-1.389-.968-.3367.042z"/><path d="m6.9333 219.291-.46333 1.052.46333.294.54734-.126.46333-.295v-.421l-.75767-.589z"/><path d="m24.106 220.975.295.631v2.904l-.1266.548-.5054.21.295.421 1.8524.042.1263-.294-.2107-.463.2107-.422.5473-.168.4214.463.421.295.505-.168.2946-.337h.632l.3787-.253-.1683-.547-.2527-.422-.5473.211-.6744.757-1.5153-.883-.1683-.464v-1.262l-.3374.084-.6313-.042z"/><path d="m27.4309 234.443.084.632.5473.042-.3366-.463z"/><path d="m28.6093 235.369-.1687.673-.337.463.5477-.168.5893-.757z"/><path d="m41.7837 235.874-.2947.632.2523.379v.463l.379.379.253-.042v-.632l.421-.463.2104-.421-.3367-.295-.632-.042z"/><path d="m17.9187 240.125-1.0524.379-.1263.505.1263.59.379.295v.631l.5897.8.2107.084.042-.59.5053-.336.5053-.127.1264-1.22.421-.379-.8414-.674z"/><path d="m268.815 63.6427.506.2946.421-.042.084-.5476.59-.0424.589.0844.169.5476.547.3367-.211.337-.547.2103-1.22-.042-.674-.6316z"/><path d="m222.78 300.44v.893l.773.536.238.833v.893l.357.417.834.119.833 1.012.833.238.595-.119-.594-.595-.06-.715.952-1.369v-.893l-.178-.773-.536-.417-.893.06-.773-.357-1.727.298z"/><path d="m232.72 371.988.476.655.536.477h.892l.834.178.416-.119.239-.655.417-.535.118-.774-.774-.357-.535-.535-.655-.178-1.428-1.25-.238-.656.059-.833.834-.06-.06-.714-.477-.477-.118-.773.417-.477-.357-.535-3.274.06-.655.237h-1.786l-.535-.356-.535.118v.595l.654.417v2.619l.357.535.833.298 1.667 2.084h1.786l.714.476z"/><path d="m34.8728 110.961-.2756.184-.2147.245-.827-.122-.3067.153-.153.337v.92l-.1533.306-.0307.429-.2756.215h-.4597l-.3063.153.0916.459.2147.307-.1533.337-.2757.276-.337.122h-.1227l.2147.368.858.061.153.399.429-.031.674-.889.3677-.091.3983.091.184.276.337-.153.1843-.307-.031-.428.1844-.307.8883-.031.398-.122.215-.245.4903-1.41-.0613-.398-1.0113-.613-.245-.275-.3064-.153-.429-.092z"/><path d="m25.6501 117.12.1534.368.215.306-.1227.245.4597.031.3063.153.2757-.184-.0617-.215-.4597-.031-.2146-.704z"/><path d="m25.1905 118.376-.2147.276.766.184.2447-.184z"/><path d="m54.5438 104.986-.122-.429-.215-.306v-.46l-.2147-.275.184-.215h-.3983l.0307-.245-.3064-.031-.2446.062-.1227-.215-.521.582-.153-.306.3063-.184-.2753-.184-.3067.184-.184.275.3374.276.2446.337-.1223.368-.398.061-.5513.399-.3984.061-.398-.031-.153.092-.092.307.1534.244.0306.429.429-.46.337.154h.46l-.031.245h-.4596l.3063.275.1533.307-.2756.184v.459l-.3064-.091-.398-.552-.245-.214-.0613.306.184.306v.092l-.3067.337-.3063.185-.184.275-.3067.153h-.4596l.429.398-.1227.154.1843.797-.0916.244h-.184l-.582.46-.184.306-2.6964-.367-3.616-2.605-.398-.091-.1223-.092-.215.245-.429.061-.7043.705-.3984.062-.6736 1.256.7353.429.398.092-.0613-.307-.245-.276.3063-.153.9193.031.1534-.368.3063-.183.245.275-.0307.582-.245.245-.7966.153-.1534.398v.613l.1224.092.2446.398.2454.797v.919l.0613.245.521.062.2147.245-.0307.428-.3373.123-.215-.582-.153.306-.7354.092-.0306.766-.276.215-1.348.031-.184-.154.0306-.428-.2756.551-.3677-.062-.092.307.3377.245.3063.122.551.735.4907.398.184.338.8886.061.337.153.184.368.429.154.4907.061.6737.429.1533-.276.521-.092.1223-.337.245-.214.1837-.798 1.011-1.439.2453-.215.2144-.307.276-.214.0613-.153.398-.062.276-.184.398-.092.2447-.214.3066-.154.4287-.03.674-.276 2.6347-.184.4906.184.551.46.3067.153h.4597l.7663.306.7967.797-.0307.368-.215.276-.2753.184-.1844.061.368.153h.4597l.3373-.122.2757-.215.398-.091.2147-.307.766-.184.1226-.337-.1533-.276.092-.337.2757-.122.4596.091.2147-.245.1223-.275-.4596-.552-.0617-.337.6133-.368.337-.03.184.184.337-.276-.122-.276.0307-.306.153-.245-.3063-.154h-.4597l-.0917-.244-.245-.245-.2446-1.134v-.735l.4903-.307.1223-.367-.215-.245-.6736.245-.3067-.092-.153-.307-.184-.766.0613-.398-.2146-.184-.3067-.153-.0613-1.133z"/><path d="m55.3095 103.332-.368.122.153.153h.4597z"/><path d="m57.4545 115.036-.184.184.429-.031z"/><path d="m23.3504 68.4208h1.9876l-.6623 1.0604-1.4577-.132z"/><path d="m28.3856 69.0832-1.3253 3.18.53-.1324 2.5177-1.7223-1.325-.53z"/><path d="m21.7607 46.0285-.132 1.4577.265 1.59-.265.9273 2.1196.265 1.5904-.3973 2.1196-1.7224-.9273-1.1923-1.06.9273-1.4573.265-.7957-1.0603z"/><path d="m28.2529 46.8235.3974.7953z"/><path d="m27.723 40.8612.132 3.18.265-1.4577 1.0604-.6623 1.59-.132 1.1926-.7954.9274 1.0604.265-.6624-1.1924-1.9876z"/><path d="m29.843 33.9712-.795 1.59.5666.2386.6257-.5036z"/><path d="m31.8303 37.5488-.9273.9274 1.3253-.265z"/><path d="m86.8173 23.9678-.0337.4967-.265.2987-.132.397.397.265 1.358-.4307.4967-.729.3973.0997.4303-.132-.1986-.365-.464-.1654-.6624-.5963-.3636-.0663-.232.5626-.331.3974z"/><path d="m85.7574 22.5102-.795.696.0663.2313 1.3914.0997-.0664-.397z"/><path d="m80.8374 96.4588-.1787.8334.4767.4763.5353.238v-.893l-.4167-.4763z"/><path d="m83.1587 97.8871-.4166.7147.5953.357.5953-.4167-.4166-.4766z"/><path d="m27.473 313.51-.4767 1.428 1.0717.952 1.3097-.595.5953-1.31-1.0717-.714z"/><path d="m24.9802 338.064.119 1.548 1.19-.714z"/><path d="m31.2899 335.564-1.5477.238v1.786l.952 1.31h.8333l.595-1.31.2384-1.548z"/><path clip-rule="evenodd" d="m232.553 16-.454.0739-.337.3796-.169.5165h-2.046l-.643-.6852-.38.253v.6431l-.379.2531-1.708.253-.211-.5483-.211.2109-.085.601-.474.3795-1.149.2953-.464.3478-.559.1687-1.191 2.5097-.211.0422-1.244-.1687-.422.3374-.042.6009-.337.3796-.306.9805-.253.3897-.085.6326-.295.4322-.811.5905-.338.39-.084.6327-.685 1.3179-.643.1788-.38-.0422.084.3796 1.15 1.0649.643.0422 1.191.5587.506.8857.474.3479.338.4217.727 1.4975.084 2.5518-.295.253-.084-.5483-.264-.5587-.084-.5483-.675-.8962-.042-.6009-.221-.5904-1.698-1.4975-1.022-.5482h-.643l-.38.3374-.211.8118-1.244 1.191-1.065.4218-.422.3057-.506.1265-1.413.9383-1.739.5483-.432.2952-4.049.0422-.812.7696-.548.2109-.644-.0422-.843-.6748-.516-.1687-1.192.2531-.337.3374h-.643l-2.816 1.1489-.717.0421-.558.3479-1.234 1.2336-1.191.5483-.516.4322-4.092 1.0645h-.674l-.981.5061-.474.4322-.591.1687-.558.3374-.422.4744-.854.5483-.506.1687-.39.3901-.548.0843-1.329.5905-1.571 1.3709-.812 1.1914-.379.2952-.348.9805-1.023 1.2754-.042.6009.306.4218v1.2335l-.601.6431-.422.2531-.432.4319-.211.4639-1.023 1.3601-.421.3479-2.004 2.9314.127.6431.253.5165-1.877 2.341-.211 1.1492-.337.2952-.169.6009-.685.854-.169.464-.38.3374-.516.2108-1.708 2.3514-.422.3796.211 1.0227-.085.3374.169.1788.643.0422.085.5483-.253.5166-.127 1.1914-.263.3795-.043 1.318-.632.8536-.169.5166.464.3796-.253.3374-.211.6009-.77.7274-1.877.8014-.295.4319-.432.3795-.422.9384v.6431l-.126.5061-.296.39-.179.5483-1.866 1.5818-.516.253-.338.3796-.042.6009.591.0844.263.5483.506.2213.643.0844.253.3374-.432.253-.759-.1687-.348-.3374-1.318-.4744h-.812l-1.486.6853-1.877.0844-.675.8114-.558.0844-1.023 1.7926-.211 1.1071-.337.2952.506.3796.559.253.042.5584-.348-.0843h-.464l-.896.5483.127.6852-.127.5166-.379-.5587-.897-.7697-1.064.2636-.39.4217-.042.2531-.76.9805-3.289 9.6686-.38.474-.422 1.065-1.75 2.299-.211.464-1.023 1.328-1.275 1.065-1.065.38-.084.77-3.069 4.259-.643 1.571.085 1.286-.043.169-.421.548-.179.475-.928.422-.348.6-1.571 1.065.042.464.169.39.042.717-.295.348-.818-.264.944.433.169.421-.337.474-.306.253-.759-.98-.306.169-.379.422-.728.389.042.591-.253.432-.938.548-.295.475 1.402 1.919-.042.548-.295.433-.127.506-.347-.643.052-.549-.516.549-.506-.043-.137-.632.305-.601-.042-.59-.432.421-.759 2.173.548.432.211.464.211.169.042-.085.601.38v.643l-.211.516-1.318 1.908-.39.306-.506 1.276.042.685-.517.126.169.506.221.296-.516.263-1.097 1.402-.01.043-.896 1.444-.422.263-1.877.042.085.507.516.432-.042 1.233-.348.296-.211.464-.126.6-.295.422-.043 1.287-.042.126-.347.506v.643l.211.422-.085.643-.464.422-1.022.39-.253.591-.77.811-.084 1.191-.211.475-.897.169-.474.379-.548.084-.812.601-.464.169-.126.548-1.371 1.023-.253 1.022v.728l-.295.516-.085.549-.432.295-.21 1.107-.812.052-.633-.137-.474.39-.338 1.656.127.39h1.276v.295l-1.614 2.425-.084-.042-.137.685-.295.38-.127.516-.337.338-.432 1.624-.717.801-.179.622-.633.854-.211.506-.305.348-.085.739-.421.221-.38.337-.474.253-.296.433-.474.253v.464l.306.432-.221.169h-.633l-.295.421-.095 1.233-.1265.348h-1.2758l-.4217-.221-.4741-.084-.1687.516-.5905.042-2.0457 3.659-.0421.222-.7275-.043-.4319.253-.6748.812-.2109.549-.0843 1.275-.3479.39-.0843.548.5587.812-.0843.601-.5588.801-1.0648.043-.1266.516v.633l-.7274.389v.812l-.0422-.042-.1687.084-.1265.549v.643l.1687.464.6431.042.4639.685-.7696.938-.464.939-.1265.506-.6427 1.065-.3374 1.191-.4323.643-.8857 2.509.0844 2.52-.1265.507.0421.474.5905.295-.0422.559-.5061.211-.7274.548.1687.727.3795.211.5166.084.0422.643-.3374.422v1.276l.4217.306.6853.938.464.379-.4218.253-.3057.559-.5905.042-.1687-.474-.3478-.295-.5061.295-.7697.896-.5061.253-.1265 3.068.2952.517.5905.211 1.9192-.127.4744.211v.643l-.2636.464-.1687.601-.2952.38v.685l-.253.506.1265.685.5483.295h.5587l-.7274 1.413-.0422.591.5166.126v.559l-.3479 1.065.0422.632.2635.517.4217.337.4741-.421.2109.295.0843 1.191-.3374.559-.4319 1.697-1.2335.517-.4744-.043-1.0122 2.341-.0527 1.709.137.506h1.2758l.5482.211.1266.558-.3374-.337-2.4253-.432-1.3176 2.299.2109.432.3374.042-.2109.633-.4322.305-.0844.591.9384.558.3897.085.5483-.169-.7272 1.065-1.1492.421-.2952.433.0844.59.253.517-.8435.801-.137.559-.2531.464-.8118-.211-.2108.432-.2531 1.149.0422 1.276-1.6661 3.11-.1687 1.192-.5062.854.3796-.475.5166-.211.5061-.042.2109 2.689.3897.295.5061.211-.2952 1.793-1.1067.464h-.0844l-1.1914.389-1.0648.981-1.107.506-.0844 1.191.0844.169.0843 1.244.2531.296h.6431l-.0422 2.003.253.812.717.843.0948.264.6327-.221.8118-.675.0843.548-.0843.601 1.5706.938.3057.084.5905.549 1.0648.558 1.3287 1.403.5062.253 1.7926 1.666.0422.169 1.1492 1.107.8115 1.233.5482-.126.7697-.717.4639-.264-.3374.728-.2952.379v.432l1.107.295-.5587.475-.6327-.043-.3479-.474-.2952-.169.2531.643.39.507.1687.558-.1687 3.237-.1792.464.1792.559.5905.675.253 1.413 1.0227 2.13v.633h.2214l.0843-.549.2109-.432.6427-.042.717 1.708-.0843.549-.6327.084-.474-.295-.2531-.422-.1265.295.0422.601.253.759.0422.601.6006 1.149v.464l3.0158 7.117.0526.601.5061 1.149.4636.591 1.6239 3.5 1.5293 1.877-.717.844-1.3184-1.318.8435 2.046-1.36 1.318-.0844 1.413-.1687.548.1687.601.9383.854.2953.464v.643l.2952.337-.0422.643-.3796.253.2531.38.5162.253.422 1.16.896.886.211.474.432.59.38.264.337.379.221.464 1.013 1.287.263.59-.896.169-.169.221v.211l.549.126 1.107-.042.21.042 1.118 1.192.464.253.77.854.211.474 4.133 3.237.59.253.939.854 1.835.548.084-.21-.295-4.903.295-.981.295-.379.559.126v.643l-.253.38-.042 1.276-.169.431.253.591.042 3.069.981.084.675.643-.043.601-.295.084.601.801 1.697 1.245.306.421.464.211.211.043-.053-.011.053.137 1.022.432.39.422.506.348.981.337.379.337.517.253.337.306.559.253.38.338 3.237 1.75.379.464.559.179 3.659 2.932.306.431.674 1.824-.126.264 1.835 1.234 1.961 2.467.169.517v1.612l.6.981.253 1.149-.042.601-.168.506.042.517 1.36 1.149.295.421.432.348.253.422.338 1.191 1.107 1.149-.295.601v.643l.126.591.39.422.548 1.666.042 1.877.338 1.107v.642l.221.422.169.728.421.379.253.422.095.601.464.464.085 1.202.253.422-.043.643-.253.422-1.75.506.084.558.601.127.169.432-.042.211.126.548.211.433-.211.421-.295.338-.854.516-.084.548.337.39-1.275 1.192v1.233l.516.295v.643l.422.38-.127.516 1.318 1.15.127.464.432.432.253.422.169.853-.296 1.023.043 2.003-.38.896.295.38.591.084.305 1.107.338.559 1.317.126.517-.811.379-.296.085-.558-.253-1.065.211-.464.474-.211.675-.727.432-.211h.633l.168.464 1.413.98.169.043.77-.043.548.127.211.432.517.126.463.296.643.211.643.042 1.276 1.286.042.591.633.211.306.263.21.422.043.59.895.854h.633l.432-.295-.084-.559-.348-.295-.126-.548.042-.601-.169-.464-1.655-2.52v-2.468l.169-.474-.211-.464.169-1.022.337-.127.042-.559 1.149-.168.559-.211.211-.422.506-.126.432-.348.169-.506.042-.601.295-.338.601-.042.127-1.149 1.233-.812.126-.474-.674-.843-.043-3.153-.389-.559v-.643l.895-1.508.338-.359v-.516l-.506-.211-.685-.727-.211-.548-.084-1.624.084-.233.295-.021.169-.211.242-.168.106-.243-.295-.464.021-1.233-.285-.433.085-.211.178-.19.106-.21.064-.253-.064-.264v-.632l-.106-.328-.136-.19.021-.379-.211-.274-.105-.285.063-.549.474-.39.127-.21.063-.233.022-.622-.085-.274v-.232l.064-.169-.295-.347.253-1.107.337-.38.169-.464-.338-.39-.379-5.577-.432-.559-.085-1.824.211-.475v-1.191l.981-3.068.853-.854.169-1.697.295-.433 1.203-3.405.295-.38.169-.474.642-.854.127-.591.337-.432.085-1.191.295-.38.179-1.191.422-.559-.042-.717.727-1.413v-1.276l.295-.295v-.643l.98-2.299v-.854l.422-.253v-.643l.222-.548.042-.601.295-.422.084-.558.253-.422.559-.295.295-.432 1.192-1.065.664-.96.021-.464.253-.496.064-1.761.063-.2-.042-.591.253-.516.042-.591.306-.389.084-.549.38-.432.295-1.065.559-.885.379-.348 1.371-.59.38-.348.6-.043.338-.421.126-.517.896-.422.728-.601.422-.21.295-.38.6-.042.338-.338.643-.094.464-.211.337-.295.728-.211.685-.432 1.276-1.529.516-.211.379-.263.254-.38.853-.685.254-.422.39-.337.927-.39.728-.675.432-2.689.464-.464.558-.084.717-.643.169-.559-.379-.928.126-.601-.337-.379-.433-.222-.21-.421.253-.422h.643l-.127-.432-.601-.675-.211-.432.085-.548.253-.39 1.961-1.613 1.149-.169.474-.179 1.065.263.042-1.022.812-.854.506-.127.39-.348.211-1.064.717-1.487.727-.685 1.15-2.51.084-1.064.221-.085.296-.516.379-.338.601-.042.168-.464 1.107-1.16v-.632l.169-.517.253-.295.432-1.708.338-.548.337-.981.348-.379.38-.264.084-.548.39-.559.295-1.919.338-.464.474-1.666.675-.97v-.643l.263-.422v-.643l.464-.253.295-.39 1.276-.042.432-.211.727-1.402.422-.348 1.234-.042.295-.98-1.023-1.065-.042-1.824.474-.474.085-1.234-.127-.601-.643-1.275-.105-2.679 1.001-.685-.042-.464-.337-.347.379-.169.296.474.474.085.506-.39.264-.422-.18-.475-.295-.379.601-2.13.042-.643.169-.506.337-.422.127-1.371.39-.38.042-.558.211-.464.464-.432.263-.422.38-1.065.422-.337.516-.127h.633l.516-.347.38-1.877-.043-1.867.601-1.286.633-4.302.474-.295v-.643l1.234-3.1.126-1.245.169-.506v-.643l.264-.506-.559-.348-.127-.169.601-.042.506-.211.338-.379.179-.517.042-1.233-.559-.854v-1.275l-.21-.559-.169-.127.084-.717.295-.474.043-1.234.421-1.107.053-.643.548-.801.126-.559.475-.421.295-1.023.042-1.329.295-.59.043-4.302.432-.517.169-1.149.506-.211.347-.379-.263-.39-.042-.422.305-.348.295-2.341.211-.421.085-.559.295-.379-.253-.854-.295-.211.042-.601.211-.464v-.601l.558-.38 1.192-1.834.464-2.173-.169-.464v-3.542l.432-1.149.886-1.192.095-.59.632-1.329.085-.548.211-.474v-.633l.642-1.455.127-1.149.211-.422.042-1.877.179-.559.211-2.467.169-.464-.042-1.877-.475-1.023.348-1.023.38-.379.211-.559.347-.295h.506l.254.38.642-.042.253-1.023h-.548l.38-.854.516-.169-.221-.422.126-.558.475.127.337-1.15v-.632l-2.425-2.52-.169-1.107-.211-.422-.042-4.007.506-.896 1.171-1.149.516-.275 1.086-1.254.464-.159.475-.823.126.085.085-.169.168-1.75.253-.253-.811-1.456v-1.919l.347-1.107 1.318-1.781.422-.264.305-.379.507-.127 1.107-.981.558-.084.422-.337 1.022-1.835 1.192-.127.084-.042.264-.643.506-.211.379-.896.39-.295.043-1.877.896-1.318.759-.685.305-.506.506-.222.211-.422-.042-1.792-.253-.422.042-1.234.854-1.623.127-.507.516-.854.169-3.669.169-.548.295-.39v-.717l.337-1.192.601-.811.169-.601.896-.548.337-.39.432-.886.043-.601 1.528-1.444 1.54-.643h.633l.179-.084-.475-.254-.337-.347-.253-.422v-.643l-.854-.506-.169-1.666.591-.38.295-.432 1.107-.211.938-.591.559-.126.169-.559-.042-.506-.211-.6006-.042-.6009-.253-.3796-.095-1.1914.263-.3796-.305-.4744.221-.5061h.633l-.085-.474-.337-.2953-.085-.1687.507-.2213-.422.0948-.601-.2213-.042-.4218-.812-.7274.137-.5483.59-.0422.517.2952.084.6009.591-.0421.516-.2635-1.233-1.2336-1.023-.3374-.137-.2531-.169-.0523-.548-.7591-.042-.4323-1.234-3.0683-.042-1.2758-.263-.3796.126-.2108v-.6853l-.168-.5588.168-3.4479-.98-1.0649-.295-.5061v-.5584l-.464-.5483-.211-1.1492.042-.6009-.348-.3374.169-4.7342.221-.7271v-.6327l.422-.9383-.084-1.2336.337-1.0226.042-.6006.812-1.7397.084-.6009.432-.7275.506-.253.338-.9802.306-.3796.463-.1687 1.276-1.4974.432-.2109 1.065-1.2335.085-1.1911.168-.5166.938-.5483.506-.1265.517-.7274.399-.3192.413-.1974.844-1.1911.095-.6326.59-.3479.601-.0843.421-.1704.38-.3779.559-.0843.422-.2636.643-.0421 1.317-.5905.262-.5183.592-.0405.253-.3795.939-.4319.262-.4444.634-.0617.232-.4856.021-.4949-.633-.6853-.474.0422-.38.3478-.39-.7274-.464-.1687-.295-.3374-.495-.1154-.612.0206-.283.2857-.571.358-1.36-.1265-1.666-1.3601-.126-.474v-1.9192l-.211-.2531.464-.3374-.085-.2109-1.402-1.413-.432-1.0227.517-1.5288.506-.3479.126-.5061-.21-.4217-.338-.3054-.211-.2952.253-.4218.422-.2635v-.6326l-.59-.0422-.559.1265-.337.3374-1.15.3901h-.642l-2.004-.4323-.506.2109-.475-.2109-1.486-.0421-.98-.2953-.464.2531-.432.4218h-.549l-.348-.4218.127-.5483.263-.4322.211-.2109h-.643l-.548.2109h-.643l-.295-.3796.168-1.1492-.6.0422-.802.5061-.727-.6748-.643-.0523-.295-.2109v-.717l-.549-.137-.263.4744-.506.1265-.127-.5061h-.432l.169.5061.474.685-.601.7591-.938.6853-.422.0422.77-.7275-.264-.4639v-1.0632l-.506-.0421-.464-.2531-.601-.0844-.685-.6852h-1.317l-.38-.2531.084-.4744-.253-.5061-.558-.1265-.422-.3479-.517-.1687-.548-.3796-.179-.4319.221-.5061.981-.4744-.095-.253-.38-.3374.338-.3796.474-.2635.422-.3796-.127-.3796-1.528 1.3179-2.131.1266-1.666-1.7083-.084-.4218.422-.4319-.211-.4217h-.675l-.474-.2109-.685-.6853.179-1.2757-.127-.601-.221-.4217-.38-.3374-1.233-1.7505-1.065-.3374-.601-.7696-.464-.2531h-.643l-.464-.3057-.347-.3796-.422-.253z" fill-rule="evenodd"/></g></svg>